# xmcd
#
# Track frame offsets:
# 150
# 31705
# 49072
# 66605
# 92402
# 114710
# 144145
# 160577
# 181065
# 206487
# 231755
# 253265
#
# Disc length: 3630 seconds
#
#
# Revision: 3
# Processed by: cddbd v1.5.2PL0 Copyright (c) Steve Scherf et al.
# Submitted via: FreeRIP 2.945 
#
DISCID=9a0e2c0c
DTITLE=Jackie Leven - The Argyll Cycle - Volume One
DYEAR=1996
DGENRE=
TTITLE0=Stranger On The Square
TTITLE1=Walking On Argyll
TTITLE2=Honeymoon Hill
TTITLE3=Looking For Love
TTITLE4=Grievin' At The Mish Nish
TTITLE5=Ballad Of A Simple Heart
TTITLE6=As We Sailed Into Skibbereen
TTITLE7=Some Ancient Misty Morning
TTITLE8=The History Of Rain
TTITLE9=Gylen Gylen
TTITLE10=Fly
TTITLE11=The Crazy Song
EXTD=YEAR: 1996
EXTT0=
EXTT1=
EXTT2=
EXTT3=
EXTT4=
EXTT5=
EXTT6=
EXTT7=
EXTT8=
EXTT9=
EXTT10=
EXTT11=
PLAYORDER=
